<?xml version="1.0" encoding="UTF-8"?>
<svg version="1.1" xmlns="http://www.w3.org/2000/svg" width="100" height="100">
<path d="M0 0 C11.49496997 7.93050599 18.36209161 19.47029663 21.58984375 32.98046875 C23.79096798 45.87796529 20.86669913 58.5881762 13.6796875 69.51171875 C4.87957877 81.69157939 -6.96158516 89.26562343 -21.9375 91.75 C-37.21813001 93.13914818 -50.32950658 87.98987333 -62.125 78.5625 C-71.9775007 69.44496407 -77.73561668 56.09145102 -78.58007812 42.75708008 C-78.89440042 28.713365 -72.55176975 16.00842706 -63.13671875 5.796875 C-57.81246304 0.72615528 -51.58792783 -2.25185631 -44.9375 -5.25 C-44.28265625 -5.59289062 -43.6278125 -5.93578125 -42.953125 -6.2890625 C-29.34379417 -12.73241825 -12.05163244 -7.12141917 0 0 Z " fill="#FFFFFF" transform="translate(77.9375,8.25)"/>
</svg>
